{"glyphs":{"0":{"ha":817,"x_min":0,"x_max":0,"o":""},"1":{"ha":574,"x_min":0,"x_max":0,"o":""},"2":{"ha":839,"x_min":0,"x_max":0,"o":""},"3":{"ha":764,"x_min":0,"x_max":0,"o":""},"4":{"ha":838,"x_min":0,"x_max":0,"o":""},"5":{"ha":834,"x_min":0,"x_max":0,"o":""},"6":{"ha":836,"x_min":0,"x_max":0,"o":""},"7":{"ha":839,"x_min":0,"x_max":0,"o":""},"8":{"ha":840,"x_min":0,"x_max":0,"o":""},"9":{"ha":838,"x_min":0,"x_max":0,"o":""},"\u0000":{"ha":694,"x_min":50,"x_max":814,"o":"m 56 972 l 808 972 q 814 966 814 971 l 814 13 q 808 7 814 7 l 56 7 q 50 13 50 7 l 50 966 q 56 972 51 972 m 165 857 l 165 122 l 699 122 l 699 857 l 165 857 m 346 726 l 517 726 q 597 652 517 720 l 597 543 l 503 430 l 503 386 q 497 380 503 380 l 367 380 q 361 386 361 380 l 361 427 q 458 560 361 440 l 458 584 l 406 584 l 406 551 q 399 545 406 545 l 272 545 q 266 551 266 545 l 266 652 q 346 726 346 720 m 367 359 l 497 359 q 503 353 503 358 l 503 258 q 497 252 503 252 l 367 252 q 361 258 361 252 l 361 353 q 367 359 362 359 z "},"\u001d":{"ha":694,"x_min":50,"x_max":814,"o":"m 56 972 l 808 972 q 814 966 814 971 l 814 13 q 808 7 814 7 l 56 7 q 50 13 50 7 l 50 966 q 56 972 51 972 m 165 857 l 165 122 l 699 122 l 699 857 l 165 857 m 346 726 l 517 726 q 597 652 517 720 l 597 543 l 503 430 l 503 386 q 497 380 503 380 l 367 380 q 361 386 361 380 l 361 427 q 458 560 361 440 l 458 584 l 406 584 l 406 551 q 399 545 406 545 l 272 545 q 266 551 266 545 l 266 652 q 346 726 346 720 m 367 359 l 497 359 q 503 353 503 358 l 503 258 q 497 252 503 252 l 367 252 q 361 258 361 252 l 361 353 q 367 359 362 359 z "}," ":{"ha":345,"x_min":0,"x_max":0,"o":""}," ":{"ha":345,"x_min":0,"x_max":0,"o":""},"!":{"ha":357,"x_min":0,"x_max":289,"o":"m 6 971 l 283 971 q 289 965 289 970 l 289 264 q 283 258 289 258 l 6 258 q 0 264 0 258 l 0 965 q 6 971 1 971 m 6 213 l 283 213 q 289 207 289 212 l 289 2 q 283 -4 289 -4 l 6 -4 q 0 2 0 -4 l 0 207 q 6 213 1 213 z "},"\"":{"ha":534,"x_min":0,"x_max":467,"o":"m 5 967 l 203 967 q 209 962 209 966 l 209 764 q 182 604 193 604 l 27 604 q 0 764 16 604 l 0 962 q 5 967 1 967 m 263 967 l 461 967 q 467 962 467 966 l 467 764 q 439 604 450 604 l 285 604 q 258 764 274 604 l 258 962 q 263 967 258 967 z "},"#":{"ha":1255,"x_min":0,"x_max":1187,"o":"m 401 973 l 586 973 q 592 967 592 972 q 550 786 550 792 l 764 786 q 812 973 804 973 l 996 973 q 1002 967 1002 972 q 961 786 961 791 l 1181 786 q 1187 780 1187 785 q 1139 593 1145 593 l 919 593 q 869 387 913 593 l 1088 387 q 1095 381 1095 387 q 1047 194 1053 194 l 827 194 q 800 87 820 194 q 773 1 779 1 l 589 1 l 583 3 q 627 194 622 174 l 416 194 q 387 75 409 194 q 363 1 370 4 l 178 1 l 172 3 q 217 194 211 174 l 6 194 l 0 197 q 47 385 39 379 l 262 385 q 309 593 264 412 l 98 593 q 92 598 92 593 q 140 783 132 777 l 354 783 q 401 973 393 973 m 458 385 l 461 385 q 672 390 672 387 l 720 593 l 509 593 q 458 385 502 593 z "},"$":{"ha":825,"x_min":0,"x_max":758,"o":"m 241 1166 l 517 1166 q 523 1160 523 1166 l 523 955 l 751 955 q 758 949 758 954 l 758 676 q 751 671 758 671 l 285 671 l 285 621 l 593 621 q 758 456 637 581 l 758 160 q 596 -1 720 119 l 523 -1 l 523 -207 q 517 -213 523 -213 l 241 -213 q 235 -207 235 -213 l 235 -1 l 6 -1 q 0 4 0 -1 l 0 277 q 6 283 1 283 l 473 283 l 473 333 l 165 333 q 0 497 121 373 l 0 793 q 161 955 38 835 l 235 955 l 235 1160 q 241 1166 236 1166 z "},"%":{"ha":1267,"x_min":0,"x_max":1199,"o":"m 789 973 l 970 973 q 976 967 976 972 q 419 6 960 948 l 410 0 l 229 0 q 223 6 223 0 q 779 967 239 25 l 789 973 m 220 941 l 243 941 q 443 795 368 941 q 455 729 455 751 l 455 699 q 309 500 455 572 q 223 485 271 485 q 9 646 79 485 q 0 711 0 684 l 0 718 q 161 932 0 867 q 220 941 182 941 m 166 718 l 166 711 q 226 652 178 652 l 229 652 q 288 708 288 662 l 288 718 q 238 774 277 774 l 223 774 q 166 718 166 765 m 976 488 q 1190 328 1120 488 q 1199 262 1199 290 l 1199 256 q 1038 41 1199 106 q 979 33 1017 33 l 955 33 q 755 178 831 33 q 744 244 744 222 l 744 274 q 890 473 744 401 q 976 488 928 488 m 910 265 l 910 256 q 961 199 922 199 l 976 199 q 1032 256 1032 208 l 1032 262 q 973 321 1021 321 l 970 321 q 910 265 910 311 z "},"&":{"ha":968,"x_min":0,"x_max":900,"o":"m 468 987 q 646 836 643 843 l 646 646 l 486 507 q 547 465 488 507 q 553 495 547 495 l 773 495 q 779 489 779 494 l 779 296 q 900 208 878 230 q 728 0 760 31 l 667 45 l 665 45 l 610 0 l 184 0 q 45 112 169 0 q 0 148 39 112 l 0 438 q 64 495 63 492 q 0 549 62 495 l 0 840 q 181 987 172 987 l 468 987 m 296 740 l 296 680 q 351 728 328 703 l 351 740 l 296 740 m 296 323 l 296 248 l 399 248 l 399 251 q 299 323 391 253 l 296 323 z "},"'":{"ha":277,"x_min":0,"x_max":209,"o":"m 5 967 l 203 967 q 209 962 209 966 l 209 764 q 182 604 193 604 l 27 604 q 0 764 16 604 l 0 962 q 5 967 1 967 z "},"(":{"ha":491,"x_min":882,"x_max":1305,"o":"m 1299 977 q 1305 970 1305 976 q 1173 337 1173 595 q 1305 -294 1173 79 l 1299 -296 l 1002 -296 q 936 -86 993 -296 q 882 316 882 154 l 882 361 q 1002 977 882 626 l 1299 977 z "},")":{"ha":492,"x_min":1587,"x_max":2011,"o":"m 1593 977 l 1887 977 q 1954 764 1900 977 q 2011 343 2011 541 l 2011 331 q 1893 -296 2011 54 l 1593 -296 q 1587 -290 1587 -296 q 1719 340 1719 77 q 1587 974 1719 585 l 1593 977 z "},"*":{"ha":708,"x_min":0,"x_max":640,"o":"m 236 977 l 404 977 q 410 971 410 976 l 410 793 l 585 848 q 640 680 622 741 q 465 623 592 662 q 572 470 566 488 l 433 370 l 428 370 l 320 515 l 212 370 l 208 370 q 68 473 77 463 q 176 623 80 492 q 0 683 0 675 q 58 848 54 848 l 231 793 l 231 971 q 236 977 232 977 z "},"+":{"ha":668,"x_min":0,"x_max":600,"o":"m 199 784 l 404 784 q 410 778 410 783 l 410 593 l 594 593 q 600 587 600 593 l 600 380 q 594 374 600 374 l 410 374 l 410 189 q 404 183 410 183 l 199 183 q 193 189 193 183 l 193 374 l 6 374 q 0 380 0 374 l 0 587 q 6 593 1 593 l 193 593 l 193 778 q 199 784 194 784 z "},",":{"ha":356,"x_min":0,"x_max":288,"o":"m 6 210 l 282 210 q 288 204 288 209 l 288 -105 q 282 -111 288 -111 l 181 -111 q 175 -105 175 -111 l 175 -4 l 6 -4 q 0 2 0 -4 l 0 204 q 6 210 1 210 z "},"-":{"ha":610,"x_min":0,"x_max":543,"o":"m 5 617 l 537 617 q 543 612 543 616 l 543 362 q 537 357 543 357 l 5 357 q 0 362 0 357 l 0 612 q 5 617 1 617 z "},"­":{"ha":610,"x_min":0,"x_max":543,"o":"m 5 617 l 537 617 q 543 612 543 616 l 543 362 q 537 357 543 357 l 5 357 q 0 362 0 357 l 0 612 q 5 617 1 617 z "},".":{"ha":356,"x_min":0,"x_max":288,"o":"m 6 210 l 282 210 q 288 204 288 209 l 288 2 q 282 -4 288 -4 l 6 -4 q 0 2 0 -4 l 0 204 q 6 210 1 210 z "},"/":{"ha":670,"x_min":0,"x_max":602,"o":"m 597 1010 q 602 1004 602 1009 l 279 -40 l 5 -40 l 0 -37 l 323 1010 l 597 1010 z "},":":{"ha":356,"x_min":0,"x_max":288,"o":"m 6 387 l 282 387 q 288 380 288 385 l 288 178 q 282 172 288 172 l 6 172 q 0 178 0 172 l 0 380 q 6 387 1 387 m 6 783 l 282 783 q 288 777 288 782 l 288 575 q 282 569 288 569 l 6 569 q 0 575 0 569 l 0 777 q 6 783 1 783 z "},";":{"ha":361,"x_min":0,"x_max":293,"o":"m 11 783 l 287 783 q 293 777 293 782 l 293 575 q 287 569 293 569 l 11 569 q 5 575 5 569 l 5 777 q 11 783 5 783 m 6 388 l 282 388 q 288 382 288 387 l 288 73 q 282 66 288 66 l 181 66 q 175 73 175 66 l 175 174 l 6 174 q 0 180 0 174 l 0 382 q 6 388 1 388 z "},"<":{"ha":589,"x_min":0,"x_max":521,"o":"m 382 869 l 385 869 q 521 733 389 869 l 521 730 l 277 484 q 521 239 418 345 l 521 237 q 385 101 521 233 l 382 101 q 0 484 216 264 l 0 486 q 382 869 163 653 z "},"=":{"ha":613,"x_min":0,"x_max":545,"o":"m 5 763 l 540 763 q 545 758 545 762 l 545 570 q 540 565 545 565 l 5 565 q 0 570 0 565 l 0 758 q 5 763 1 763 m 5 416 l 540 416 q 545 410 545 415 l 545 223 q 540 218 545 218 l 5 218 q 0 223 0 218 l 0 410 q 5 416 1 416 z "},">":{"ha":589,"x_min":0,"x_max":521,"o":"m 136 869 l 138 869 q 521 486 305 705 l 521 484 q 138 101 357 317 l 136 101 q 0 237 132 101 l 0 239 l 244 486 q 0 730 102 625 l 0 733 q 136 869 0 737 z "},"?":{"ha":758,"x_min":-292,"x_max":397,"o":"m -119 971 l 225 971 q 397 823 225 965 l 397 597 l 199 361 l 199 264 q 193 258 199 258 l -87 258 q -93 264 -93 258 l -93 370 l 109 632 l 109 683 l -4 683 l -4 606 q -9 600 -4 600 l -286 600 q -292 606 -292 600 l -292 819 q -119 968 -292 823 l -119 971 m -87 213 l 193 213 q 199 207 199 212 l 199 2 q 193 -4 199 -4 l -87 -4 q -93 2 -93 -4 l -93 207 q -87 213 -92 213 z "},"@":{"ha":1242,"x_min":0,"x_max":1175,"o":"m 581 1072 l 594 1072 q 1077 811 882 1072 q 1175 491 1175 656 l 1175 477 q 1099 198 1175 326 l 423 198 q 307 315 418 200 l 307 651 q 426 770 307 654 l 792 770 q 798 765 798 770 l 798 385 l 968 385 q 982 480 979 430 q 746 846 982 721 q 589 879 651 879 q 250 686 377 879 q 193 486 193 586 q 385 146 193 274 q 586 90 486 90 q 760 127 657 90 l 1047 127 q 1053 122 1053 127 q 594 -103 857 -103 l 581 -103 q 98 157 292 -103 q 0 477 0 312 l 0 491 q 260 974 0 779 q 581 1072 415 1072 m 494 583 l 494 385 l 610 385 l 610 583 l 494 583 z "},"A":{"ha":871,"x_min":0,"x_max":804,"o":"m 680 968 q 721 665 690 968 q 804 8 724 659 l 798 5 l 521 5 q 486 256 510 5 q 480 285 483 256 l 321 285 q 286 5 292 26 l 6 5 q 0 12 0 5 q 118 968 106 893 l 680 968 m 371 682 l 356 570 l 444 570 l 433 682 l 371 682 z "},"B":{"ha":830,"x_min":0,"x_max":762,"o":"m 5 962 l 589 962 q 762 815 746 834 l 762 538 q 701 488 707 488 l 701 479 q 762 429 707 479 l 762 153 q 589 5 746 134 l 5 5 q 0 12 0 5 l 0 956 q 5 962 1 962 m 288 721 l 288 632 l 477 632 l 477 721 l 288 721 m 288 335 l 288 247 l 477 247 l 477 335 l 288 335 z "},"C":{"ha":769,"x_min":0,"x_max":701,"o":"m 192 971 l 695 971 q 701 965 701 970 l 701 688 q 695 682 701 682 l 286 682 l 286 291 l 695 291 q 701 285 701 290 l 701 12 q 695 5 701 5 l 192 5 q 0 197 85 108 l 0 780 q 192 971 103 886 z "},"D":{"ha":833,"x_min":0,"x_max":766,"o":"m 6 968 l 571 968 q 766 774 684 859 l 766 194 q 571 -1 656 81 l 12 -1 q 0 12 7 -1 l 0 962 q 6 968 1 968 m 286 680 l 286 288 l 480 288 l 480 680 l 286 680 z "},"E":{"ha":756,"x_min":0,"x_max":688,"o":"m 5 968 l 683 968 q 688 962 688 967 l 688 688 q 683 682 688 682 l 286 682 l 286 629 l 506 629 q 512 623 512 629 l 512 350 q 506 344 512 344 l 286 344 l 286 294 l 683 294 q 688 288 688 293 l 688 12 q 683 5 688 5 l 5 5 q 0 12 0 5 l 0 962 q 5 968 1 968 z "},"F":{"ha":757,"x_min":0,"x_max":689,"o":"m 6 968 l 683 968 q 689 962 689 967 l 689 688 q 683 682 689 682 l 286 682 l 286 629 l 507 629 q 512 623 512 629 l 512 350 q 507 344 512 344 l 286 344 l 286 12 q 280 5 286 5 l 6 5 q 0 12 0 5 l 0 962 q 6 968 1 968 z "},"G":{"ha":836,"x_min":0,"x_max":768,"o":"m 194 971 l 762 971 q 768 965 768 970 l 768 688 q 762 682 768 682 l 288 682 l 288 291 l 477 291 l 477 517 q 483 524 478 524 l 762 524 q 768 517 768 523 l 768 14 q 751 5 766 5 l 194 5 q 0 199 81 115 l 0 777 q 194 971 109 890 z "},"H":{"ha":833,"x_min":0,"x_max":765,"o":"m 5 968 l 279 968 q 286 962 286 967 l 286 629 l 479 629 l 479 959 q 486 965 480 965 l 759 965 q 765 959 765 964 l 765 8 q 759 3 765 3 l 486 3 q 479 8 479 3 l 479 344 l 286 344 l 286 12 q 279 5 286 5 l 5 5 q 0 12 0 5 l 0 962 q 5 968 1 968 z "},"I":{"ha":353,"x_min":0,"x_max":286,"o":"m 6 968 l 280 968 q 286 962 286 967 l 286 12 q 280 5 286 5 l 6 5 q 0 12 0 5 l 0 962 q 6 968 1 968 z "},"J":{"ha":768,"x_min":0,"x_max":701,"o":"m 5 971 l 227 971 q 697 968 390 971 l 701 962 l 701 199 q 506 5 591 87 l 5 5 q 0 12 0 5 l 0 285 q 5 291 1 291 l 412 291 l 412 682 l 5 682 q 0 688 0 682 l 0 965 q 5 971 1 971 z "},"K":{"ha":865,"x_min":0,"x_max":798,"o":"m 6 968 l 279 968 q 286 962 286 967 l 286 691 l 288 691 q 474 968 410 880 l 791 968 q 798 962 798 967 l 551 597 q 798 5 786 42 l 509 5 q 433 176 499 8 q 371 323 382 289 q 286 199 366 323 l 286 12 q 279 5 286 5 l 6 5 q 0 12 0 5 l 0 962 q 6 968 1 968 z "},"L":{"ha":654,"x_min":0,"x_max":586,"o":"m 6 968 l 280 968 q 286 962 286 967 l 286 291 l 580 291 q 586 285 586 290 l 586 12 q 580 5 586 5 l 6 5 q 0 12 0 5 l 0 962 q 6 968 1 968 z "},"M":{"ha":1025,"x_min":0,"x_max":957,"o":"m 6 968 l 283 968 q 380 791 301 949 l 480 612 q 671 968 609 855 l 951 968 q 957 962 957 967 l 957 12 q 951 5 957 5 l 674 5 q 669 12 669 5 l 669 355 l 665 355 q 571 185 587 198 l 386 185 q 292 355 364 210 l 289 355 l 289 12 q 283 5 289 5 l 6 5 q 0 12 0 5 l 0 962 q 6 968 1 968 z "},"N":{"ha":830,"x_min":0,"x_max":762,"o":"m 6 968 l 283 968 q 474 614 293 960 l 477 614 l 477 962 q 483 968 477 968 l 756 968 q 762 962 762 967 l 762 12 q 756 5 762 5 l 479 5 q 292 355 438 71 l 288 355 l 288 12 q 283 5 288 5 l 6 5 q 0 12 0 5 l 0 962 q 6 968 1 968 z "},"O":{"ha":815,"x_min":0,"x_max":747,"o":"m 194 971 l 553 971 q 747 777 667 861 l 747 199 q 553 5 638 87 l 194 5 q 0 199 81 115 l 0 777 q 194 971 109 890 m 288 682 l 288 291 l 459 291 l 459 682 l 288 682 z "},"P":{"ha":827,"x_min":0,"x_max":760,"o":"m 5 971 l 585 971 q 760 798 663 897 l 760 465 q 583 288 760 461 l 286 288 l 286 12 q 279 5 286 5 l 5 5 q 0 12 0 5 l 0 965 q 5 971 1 971 m 286 682 l 286 576 l 474 576 l 474 682 l 286 682 z "},"Q":{"ha":945,"x_min":0,"x_max":877,"o":"m 195 981 l 559 981 q 754 787 667 877 l 754 174 q 877 -9 754 161 l 877 -12 q 608 -117 852 -27 q 562 0 595 -90 l 191 0 q 0 197 0 184 l 0 787 q 195 981 104 895 m 290 688 l 290 290 l 464 290 l 464 688 l 290 688 z "},"R":{"ha":830,"x_min":0,"x_max":762,"o":"m 6 971 l 589 971 q 762 798 666 897 l 762 465 l 701 400 l 760 338 l 760 12 q 753 5 760 5 l 480 5 q 474 12 474 5 l 474 288 l 288 288 l 288 12 q 283 5 288 5 l 6 5 q 0 12 0 5 l 0 965 q 6 971 1 971 m 288 682 l 288 576 l 477 576 l 477 682 l 288 682 z "},"S":{"ha":830,"x_min":0,"x_max":762,"o":"m 165 965 l 756 965 q 762 959 762 964 l 762 686 q 756 680 762 680 l 288 680 l 288 629 l 597 629 q 762 465 642 589 l 762 170 q 597 5 722 126 l 6 5 q 0 12 0 5 l 0 285 q 6 291 1 291 l 477 291 l 477 341 l 165 341 q 0 506 121 381 l 0 800 q 165 965 40 844 z "},"T":{"ha":831,"x_min":0,"x_max":763,"o":"m 6 968 l 757 968 q 763 962 763 967 l 763 688 q 757 682 763 682 l 524 682 l 524 12 q 518 5 524 5 l 245 5 q 239 12 239 5 l 239 682 l 6 682 q 0 688 0 682 l 0 962 q 6 968 1 968 z "},"U":{"ha":836,"x_min":0,"x_max":768,"o":"m 5 968 l 282 968 q 288 962 288 967 l 288 288 l 479 288 l 479 962 q 486 968 480 968 l 762 968 q 768 962 768 967 l 768 194 q 571 -1 579 -1 q 188 3 234 3 q 0 194 1 191 l 0 962 q 5 968 1 968 z "},"V":{"ha":838,"x_min":0,"x_max":770,"o":"m 6 975 l 282 975 q 330 669 292 975 q 377 338 377 365 l 380 338 q 484 975 473 924 l 764 975 q 770 968 770 974 q 579 3 603 115 l 574 0 l 196 0 q 170 113 185 0 q 0 972 146 217 l 6 975 z "},"W":{"ha":1145,"x_min":0,"x_max":1078,"o":"m 6 968 l 283 968 q 289 959 289 968 l 321 465 l 324 465 q 439 668 414 638 l 639 668 q 751 467 688 588 l 753 467 q 792 968 786 930 l 1072 968 l 1078 965 l 1010 8 l 1004 5 l 686 5 q 539 264 675 16 l 536 264 q 389 5 406 21 l 71 5 q 65 12 65 5 l 0 965 l 6 968 z "},"X":{"ha":824,"x_min":0,"x_max":756,"o":"m 5 971 l 309 971 q 376 833 322 960 q 441 968 385 842 l 447 971 l 750 971 q 756 965 756 970 q 536 491 547 511 q 756 8 756 14 l 750 5 l 447 5 q 379 146 433 24 l 376 146 q 309 5 329 33 l 0 5 q 220 491 0 12 q 0 968 200 532 l 5 971 z "},"Y":{"ha":827,"x_min":0,"x_max":760,"o":"m 6 968 l 312 968 q 382 771 319 968 l 385 771 q 448 968 437 955 l 760 968 q 527 438 760 956 q 524 291 524 336 l 524 8 q 518 3 524 3 l 241 3 q 235 8 235 3 l 235 429 q 0 965 235 436 l 6 968 z "},"Z":{"ha":830,"x_min":0,"x_max":762,"o":"m 5 965 l 756 965 q 762 959 762 964 l 762 682 l 391 291 l 756 291 q 762 285 762 290 l 762 12 q 756 5 762 5 l 5 5 q 0 12 0 5 l 0 294 l 365 680 l 5 680 q 0 686 0 680 l 0 959 q 5 965 1 965 z "},"[":{"ha":650,"x_min":0,"x_max":583,"o":"m 6 977 l 576 977 q 583 970 583 976 l 583 691 q 576 686 583 686 l 294 686 l 294 -5 l 576 -5 q 583 -12 583 -6 l 583 -290 q 576 -296 583 -296 l 6 -296 q 0 -290 0 -296 l 0 970 q 6 977 1 977 z "},"\\":{"ha":670,"x_min":0,"x_max":602,"o":"m 5 1010 l 277 1010 q 439 486 285 1004 q 602 -37 448 467 l 597 -40 l 326 -40 q 260 163 312 -18 q 0 1007 258 165 l 5 1010 z "},"]":{"ha":647,"x_min":0,"x_max":579,"o":"m 5 977 l 573 977 q 579 970 579 976 l 579 -290 q 573 -296 579 -296 l 5 -296 q 0 -290 0 -296 l 0 -12 q 5 -5 1 -5 l 288 -5 l 288 686 l 5 686 q 0 691 0 686 l 0 970 q 5 977 1 977 z "},"^":{"ha":605,"x_min":0,"x_max":537,"o":"m 136 967 l 401 967 q 461 812 415 955 q 537 606 469 798 l 532 604 l 331 604 q 271 764 326 604 l 266 764 q 206 604 212 604 l 5 604 q 0 609 0 604 l 130 964 l 136 967 z "},"_":{"ha":952,"x_min":0,"x_max":884,"o":"m 5 -55 l 879 -55 q 884 -60 884 -56 l 884 -180 q 879 -185 884 -185 l 5 -185 q 0 -180 0 -185 l 0 -60 q 5 -55 1 -55 z "},"`":{"ha":277,"x_min":0,"x_max":209,"o":"m 5 967 l 203 967 q 209 962 209 966 l 209 764 q 182 604 193 604 l 27 604 q 0 764 16 604 l 0 962 q 5 967 1 967 z "},"a":{"ha":871,"x_min":0,"x_max":804,"o":"m 680 968 q 721 665 690 968 q 804 8 724 659 l 798 5 l 521 5 q 486 256 510 5 q 480 285 483 256 l 321 285 q 286 5 292 26 l 6 5 q 0 12 0 5 q 118 968 106 893 l 680 968 m 371 682 l 356 570 l 444 570 l 433 682 l 371 682 z "},"b":{"ha":830,"x_min":0,"x_max":762,"o":"m 5 962 l 589 962 q 762 815 746 834 l 762 538 q 701 488 707 488 l 701 479 q 762 429 707 479 l 762 153 q 589 5 746 134 l 5 5 q 0 12 0 5 l 0 956 q 5 962 1 962 m 288 721 l 288 632 l 477 632 l 477 721 l 288 721 m 288 335 l 288 247 l 477 247 l 477 335 l 288 335 z "},"c":{"ha":769,"x_min":0,"x_max":701,"o":"m 192 971 l 695 971 q 701 965 701 970 l 701 688 q 695 682 701 682 l 286 682 l 286 291 l 695 291 q 701 285 701 290 l 701 12 q 695 5 701 5 l 192 5 q 0 197 85 108 l 0 780 q 192 971 103 886 z "},"d":{"ha":833,"x_min":0,"x_max":766,"o":"m 6 968 l 571 968 q 766 774 684 859 l 766 194 q 571 -1 656 81 l 12 -1 q 0 12 7 -1 l 0 962 q 6 968 1 968 m 286 680 l 286 288 l 480 288 l 480 680 l 286 680 z "},"e":{"ha":756,"x_min":0,"x_max":688,"o":"m 5 968 l 683 968 q 688 962 688 967 l 688 688 q 683 682 688 682 l 286 682 l 286 629 l 506 629 q 512 623 512 629 l 512 350 q 506 344 512 344 l 286 344 l 286 294 l 683 294 q 688 288 688 293 l 688 12 q 683 5 688 5 l 5 5 q 0 12 0 5 l 0 962 q 5 968 1 968 z "},"f":{"ha":757,"x_min":0,"x_max":689,"o":"m 6 968 l 683 968 q 689 962 689 967 l 689 688 q 683 682 689 682 l 286 682 l 286 629 l 507 629 q 512 623 512 629 l 512 350 q 507 344 512 344 l 286 344 l 286 12 q 280 5 286 5 l 6 5 q 0 12 0 5 l 0 962 q 6 968 1 968 z "},"g":{"ha":836,"x_min":0,"x_max":768,"o":"m 194 971 l 762 971 q 768 965 768 970 l 768 688 q 762 682 768 682 l 288 682 l 288 291 l 477 291 l 477 517 q 483 524 478 524 l 762 524 q 768 517 768 523 l 768 14 q 751 5 766 5 l 194 5 q 0 199 81 115 l 0 777 q 194 971 109 890 z "},"h":{"ha":833,"x_min":0,"x_max":765,"o":"m 5 968 l 279 968 q 286 962 286 967 l 286 629 l 479 629 l 479 959 q 486 965 480 965 l 759 965 q 765 959 765 964 l 765 8 q 759 3 765 3 l 486 3 q 479 8 479 3 l 479 344 l 286 344 l 286 12 q 279 5 286 5 l 5 5 q 0 12 0 5 l 0 962 q 5 968 1 968 z "},"i":{"ha":353,"x_min":0,"x_max":286,"o":"m 6 968 l 280 968 q 286 962 286 967 l 286 12 q 280 5 286 5 l 6 5 q 0 12 0 5 l 0 962 q 6 968 1 968 z "},"j":{"ha":768,"x_min":0,"x_max":701,"o":"m 5 971 l 227 971 q 697 968 390 971 l 701 962 l 701 199 q 506 5 591 87 l 5 5 q 0 12 0 5 l 0 285 q 5 291 1 291 l 412 291 l 412 682 l 5 682 q 0 688 0 682 l 0 965 q 5 971 1 971 z "},"k":{"ha":865,"x_min":0,"x_max":798,"o":"m 6 968 l 279 968 q 286 962 286 967 l 286 691 l 288 691 q 474 968 410 880 l 791 968 q 798 962 798 967 l 551 597 q 798 5 786 42 l 509 5 q 433 176 499 8 q 371 323 382 289 q 286 199 366 323 l 286 12 q 279 5 286 5 l 6 5 q 0 12 0 5 l 0 962 q 6 968 1 968 z "},"l":{"ha":654,"x_min":0,"x_max":586,"o":"m 6 968 l 280 968 q 286 962 286 967 l 286 291 l 580 291 q 586 285 586 290 l 586 12 q 580 5 586 5 l 6 5 q 0 12 0 5 l 0 962 q 6 968 1 968 z "},"m":{"ha":1025,"x_min":0,"x_max":957,"o":"m 6 968 l 283 968 q 380 791 301 949 l 480 612 q 671 968 609 855 l 951 968 q 957 962 957 967 l 957 12 q 951 5 957 5 l 674 5 q 669 12 669 5 l 669 355 l 665 355 q 571 185 587 198 l 386 185 q 292 355 364 210 l 289 355 l 289 12 q 283 5 289 5 l 6 5 q 0 12 0 5 l 0 962 q 6 968 1 968 z "},"n":{"ha":830,"x_min":0,"x_max":762,"o":"m 6 968 l 283 968 q 474 614 293 960 l 477 614 l 477 962 q 483 968 477 968 l 756 968 q 762 962 762 967 l 762 12 q 756 5 762 5 l 479 5 q 292 355 438 71 l 288 355 l 288 12 q 283 5 288 5 l 6 5 q 0 12 0 5 l 0 962 q 6 968 1 968 z "},"o":{"ha":815,"x_min":0,"x_max":747,"o":"m 194 971 l 553 971 q 747 777 667 861 l 747 199 q 553 5 638 87 l 194 5 q 0 199 81 115 l 0 777 q 194 971 109 890 m 288 682 l 288 291 l 459 291 l 459 682 l 288 682 z "},"p":{"ha":827,"x_min":0,"x_max":760,"o":"m 5 971 l 585 971 q 760 798 663 897 l 760 465 q 583 288 760 461 l 286 288 l 286 12 q 279 5 286 5 l 5 5 q 0 12 0 5 l 0 965 q 5 971 1 971 m 286 682 l 286 576 l 474 576 l 474 682 l 286 682 z "},"q":{"ha":945,"x_min":0,"x_max":877,"o":"m 195 981 l 559 981 q 754 787 667 877 l 754 174 q 877 -9 754 161 l 877 -12 q 608 -117 852 -27 q 562 0 595 -90 l 191 0 q 0 197 0 184 l 0 787 q 195 981 104 895 m 290 688 l 290 290 l 464 290 l 464 688 l 290 688 z "},"r":{"ha":830,"x_min":0,"x_max":762,"o":"m 6 971 l 589 971 q 762 798 666 897 l 762 465 l 701 400 l 760 338 l 760 12 q 753 5 760 5 l 480 5 q 474 12 474 5 l 474 288 l 288 288 l 288 12 q 283 5 288 5 l 6 5 q 0 12 0 5 l 0 965 q 6 971 1 971 m 288 682 l 288 576 l 477 576 l 477 682 l 288 682 z "},"s":{"ha":830,"x_min":0,"x_max":762,"o":"m 165 965 l 756 965 q 762 959 762 964 l 762 686 q 756 680 762 680 l 288 680 l 288 629 l 597 629 q 762 465 642 589 l 762 170 q 597 5 722 126 l 6 5 q 0 12 0 5 l 0 285 q 6 291 1 291 l 477 291 l 477 341 l 165 341 q 0 506 121 381 l 0 800 q 165 965 40 844 z "},"t":{"ha":831,"x_min":0,"x_max":763,"o":"m 6 968 l 757 968 q 763 962 763 967 l 763 688 q 757 682 763 682 l 524 682 l 524 12 q 518 5 524 5 l 245 5 q 239 12 239 5 l 239 682 l 6 682 q 0 688 0 682 l 0 962 q 6 968 1 968 z "},"u":{"ha":836,"x_min":0,"x_max":768,"o":"m 5 968 l 282 968 q 288 962 288 967 l 288 288 l 479 288 l 479 962 q 486 968 480 968 l 762 968 q 768 962 768 967 l 768 194 q 571 -1 579 -1 q 188 3 234 3 q 0 194 1 191 l 0 962 q 5 968 1 968 z "},"v":{"ha":838,"x_min":0,"x_max":770,"o":"m 6 975 l 282 975 q 330 669 292 975 q 377 338 377 365 l 380 338 q 484 975 473 924 l 764 975 q 770 968 770 974 q 579 3 603 115 l 574 0 l 196 0 q 170 113 185 0 q 0 972 146 217 l 6 975 z "},"w":{"ha":1145,"x_min":0,"x_max":1078,"o":"m 6 968 l 283 968 q 289 959 289 968 l 321 465 l 324 465 q 439 668 414 638 l 639 668 q 751 467 688 588 l 753 467 q 792 968 786 930 l 1072 968 l 1078 965 l 1010 8 l 1004 5 l 686 5 q 539 264 675 16 l 536 264 q 389 5 406 21 l 71 5 q 65 12 65 5 l 0 965 l 6 968 z "},"x":{"ha":824,"x_min":0,"x_max":756,"o":"m 5 971 l 309 971 q 376 833 322 960 q 441 968 385 842 l 447 971 l 750 971 q 756 965 756 970 q 536 491 547 511 q 756 8 756 14 l 750 5 l 447 5 q 379 146 433 24 l 376 146 q 309 5 329 33 l 0 5 q 220 491 0 12 q 0 968 200 532 l 5 971 z "},"y":{"ha":827,"x_min":0,"x_max":760,"o":"m 6 968 l 312 968 q 382 771 319 968 l 385 771 q 448 968 437 955 l 760 968 q 527 438 760 956 q 524 291 524 336 l 524 8 q 518 3 524 3 l 241 3 q 235 8 235 3 l 235 429 q 0 965 235 436 l 6 968 z "},"z":{"ha":830,"x_min":0,"x_max":762,"o":"m 5 965 l 756 965 q 762 959 762 964 l 762 682 l 391 291 l 756 291 q 762 285 762 290 l 762 12 q 756 5 762 5 l 5 5 q 0 12 0 5 l 0 294 l 365 680 l 5 680 q 0 686 0 680 l 0 959 q 5 965 1 965 z "},"{":{"ha":806,"x_min":1674,"x_max":2412,"o":"m 2053 972 l 2406 972 q 2412 966 2412 972 l 2412 691 q 2406 685 2412 685 l 2116 685 q 2092 379 2092 543 l 2092 368 q 2089 344 2092 355 q 2092 320 2092 332 l 2092 308 q 2116 0 2092 135 l 2406 0 q 2412 -6 2412 -1 l 2412 -285 q 2403 -291 2412 -291 q 2047 -288 2359 -291 q 1982 -267 2047 -283 q 1870 -163 1906 -231 q 1822 38 1838 -106 q 1801 225 1813 163 l 1680 225 q 1674 231 1674 225 l 1674 456 q 1680 463 1675 463 l 1801 463 q 1834 741 1813 534 q 1905 901 1855 844 q 2053 972 1959 954 z "},"|":{"ha":354,"x_min":0,"x_max":286,"o":"m 6 1085 l 280 1085 q 286 1080 286 1084 l 286 -199 q 280 -203 286 -203 l 6 -203 q 0 -199 0 -203 l 0 1080 q 6 1085 1 1085 z "},"}":{"ha":806,"x_min":2777,"x_max":3516,"o":"m 2783 972 l 3136 972 q 3263 916 3224 955 q 3347 783 3313 886 q 3385 474 3362 703 q 3388 463 3388 474 l 3510 463 q 3516 456 3516 461 l 3516 231 q 3510 225 3516 225 l 3388 225 l 3349 -83 q 3258 -237 3323 -189 q 3142 -285 3215 -270 q 3139 -288 3142 -288 q 2780 -291 2846 -291 l 2777 -285 l 2777 -6 q 2783 0 2778 0 l 3073 0 q 3097 308 3097 135 l 3097 320 q 3101 344 3097 332 q 3097 368 3097 355 l 3097 379 q 3073 685 3097 543 l 2783 685 q 2777 691 2777 685 l 2777 966 q 2783 972 2778 972 z "},"~":{"ha":751,"x_min":75,"x_max":677,"o":"m 677 629 l 677 471 q 592 404 634 422 q 509 386 550 386 q 373 419 466 386 q 242 452 280 452 q 174 434 210 452 q 75 343 138 416 l 75 501 q 160 569 118 551 q 242 588 202 588 q 380 554 288 588 q 509 521 473 521 q 577 539 541 521 q 677 629 614 557 z "},"£":{"ha":751,"x_min":54,"x_max":698,"o":"m 433 935 q 314 875 355 935 q 273 717 273 815 q 307 511 273 595 l 554 511 l 554 456 l 330 456 q 363 327 363 394 q 264 81 363 212 l 531 81 q 635 172 595 81 l 698 172 l 623 0 l 79 0 l 80 37 q 200 323 200 190 q 168 456 200 393 l 54 456 l 54 511 l 144 511 q 106 675 106 604 q 194 912 106 825 q 433 1000 282 1000 q 576 988 492 1000 q 661 961 661 977 l 661 830 l 614 830 q 559 900 612 865 q 433 935 506 935 z "},"¤":{"ha":751,"x_min":116,"x_max":635,"o":"m 273 665 q 376 691 317 691 q 478 665 434 691 l 559 746 l 635 669 l 553 587 q 581 486 581 540 q 553 385 581 432 l 635 303 l 559 227 l 477 308 q 374 281 433 281 q 273 307 317 281 l 193 227 l 116 303 l 197 385 q 171 486 171 431 q 198 587 171 541 l 116 669 l 193 746 l 273 665 m 494 486 q 456 573 494 542 q 376 605 418 605 q 296 573 334 605 q 257 486 257 542 q 296 400 257 432 q 376 368 334 368 q 456 399 418 368 q 494 486 494 431 z "},"¥":{"ha":751,"x_min":-28,"x_max":779,"o":"m 473 373 l 473 197 q 541 47 473 47 l 595 47 l 595 0 l 155 0 l 155 47 l 210 47 q 277 197 277 47 l 277 373 l 122 373 l 122 427 l 277 427 l 277 470 l 264 495 l 122 495 l 122 549 l 237 549 l 96 828 q 7 926 39 926 l -28 926 l -28 972 l 330 972 l 330 926 l 296 926 q 260 901 260 926 q 298 808 260 869 l 418 551 l 534 814 q 566 897 566 867 q 530 926 566 926 l 498 926 l 498 972 l 779 972 l 779 926 l 755 926 q 644 823 702 926 l 512 549 l 629 549 l 629 495 l 486 495 l 473 469 l 473 427 l 629 427 l 629 373 l 473 373 z "},"¦":{"ha":751,"x_min":289,"x_max":463,"o":"m 289 252 l 463 252 l 463 -283 l 289 -283 l 289 252 m 289 972 l 463 972 l 463 437 l 289 437 l 289 972 z "},"§":{"ha":705,"x_min":0,"x_max":637,"o":"m 130 972 l 632 972 q 637 967 637 972 l 637 777 q 632 772 637 772 l 201 772 l 201 663 l 505 663 q 637 530 509 663 l 637 281 l 608 248 l 637 216 l 637 -34 q 507 -164 635 -40 l 5 -164 q 0 -159 0 -164 l 0 31 q 5 37 1 37 l 437 37 l 437 145 l 133 145 q 0 278 129 145 l 0 528 q 33 560 33 557 q 0 593 28 560 l 0 842 q 130 972 2 848 m 228 457 l 201 457 l 201 349 l 288 349 q 437 351 338 349 l 437 460 q 228 457 302 457 z "},"¨":{"ha":694,"x_min":155,"x_max":578,"o":"m 165 878 l 224 932 q 245 941 234 941 q 266 930 254 941 l 323 875 q 331 856 331 865 q 321 836 331 846 l 265 778 q 245 765 250 765 q 224 774 233 765 l 161 840 q 155 857 155 848 q 165 878 155 867 m 412 878 l 471 932 q 492 941 481 941 q 513 930 500 941 l 570 875 q 578 856 578 865 q 568 836 578 846 l 512 778 q 492 765 497 765 q 471 774 479 765 l 408 840 q 401 857 401 848 q 412 878 401 867 z "},"©":{"ha":1030,"x_min":0,"x_max":962,"o":"m 473 964 l 496 964 q 869 767 708 964 q 962 486 962 631 q 710 60 962 222 q 496 4 589 4 l 473 4 q 62 245 222 4 q 0 477 0 365 l 0 491 q 241 902 0 741 q 473 964 361 964 m 144 494 l 144 473 q 317 189 144 298 q 469 148 392 148 l 496 148 q 751 283 640 148 q 819 486 819 377 q 681 755 819 644 q 496 820 588 820 l 469 820 q 185 647 294 820 q 144 494 144 572 m 387 714 l 619 714 q 625 709 625 713 l 625 583 q 619 576 625 576 l 431 576 l 431 391 l 619 391 q 625 386 625 391 l 625 260 q 619 254 625 254 l 387 254 q 294 347 384 254 l 294 621 q 387 714 294 625 z "},"«":{"ha":698,"x_min":118,"x_max":629,"o":"m 118 325 l 357 537 l 390 537 l 390 505 l 251 325 l 390 144 l 390 113 l 357 113 l 118 325 m 357 325 l 597 537 l 629 537 l 629 505 l 490 325 l 629 144 l 629 113 l 597 113 l 357 325 z "},"¬":{"ha":751,"x_min":58,"x_max":680,"o":"m 58 524 l 680 524 l 680 183 l 679 182 l 561 182 l 561 448 l 58 448 l 58 524 z "},"®":{"ha":710,"x_min":814,"x_max":1456,"o":"m 1125 1122 l 1141 1122 q 1415 961 1307 1122 q 1456 806 1456 881 l 1456 797 q 1295 523 1456 630 q 1141 481 1215 481 l 1125 481 q 876 612 983 481 q 814 801 814 704 q 982 1084 814 977 q 1125 1122 1063 1122 m 909 801 q 1002 621 909 695 q 1125 578 1063 578 l 1143 578 q 1333 693 1260 578 q 1360 795 1360 743 l 1360 808 q 1244 998 1360 926 q 1143 1026 1194 1026 l 1125 1026 q 955 936 1029 1026 q 909 801 909 873 m 1035 941 l 1201 941 q 1252 890 1206 940 l 1252 797 l 1233 775 q 1250 758 1235 775 l 1250 665 q 1246 662 1250 662 l 1170 662 q 1166 665 1166 662 l 1166 744 l 1113 744 l 1113 665 q 1109 662 1113 662 l 1035 662 q 1031 665 1031 662 l 1031 938 q 1035 941 1031 941 m 1113 857 l 1113 828 l 1168 828 l 1168 857 l 1113 857 z "},"¯":{"ha":694,"x_min":163,"x_max":531,"o":"m 192 889 q 163 915 163 889 l 163 971 q 193 998 163 998 l 502 998 q 531 971 531 998 l 531 915 q 503 889 531 889 l 192 889 z "},"°":{"ha":483,"x_min":0,"x_max":415,"o":"m 203 970 l 212 970 q 407 823 347 970 q 415 766 415 795 l 415 758 q 269 563 415 623 q 212 555 240 555 l 203 555 q 8 701 68 555 q 0 758 0 730 l 0 766 q 146 962 0 901 q 203 970 175 970 m 152 766 l 152 758 q 203 707 161 707 l 212 707 q 263 758 263 716 l 263 766 q 212 818 254 818 l 203 818 q 152 766 152 808 z "},"±":{"ha":668,"x_min":0,"x_max":697,"o":"m 199 784 l 404 784 q 410 778 410 783 l 410 593 l 594 593 q 600 587 600 593 l 600 380 q 594 374 600 374 l 410 374 l 410 189 q 404 183 410 183 l 199 183 q 193 189 193 183 l 193 374 l 6 374 q 0 380 0 374 l 0 587 q 6 593 1 593 l 193 593 l 193 778 q 199 784 194 784 m 54 0 l 54 109 l 697 109 l 697 0 l 54 0 z "},"´":{"ha":694,"x_min":191,"x_max":522,"o":"m 191 732 l 365 924 q 463 975 408 975 q 508 958 494 975 q 522 924 522 942 q 469 853 522 882 l 257 732 l 191 732 z "},"¶":{"ha":751,"x_min":66,"x_max":685,"o":"m 685 977 l 685 922 l 599 922 l 599 -4 l 519 -4 l 519 922 l 431 922 l 431 -4 l 322 -4 l 322 471 q 140 550 213 475 q 66 723 66 625 q 144 908 66 838 q 359 977 222 977 l 685 977 z "},"·":{"ha":375,"x_min":100,"x_max":276,"o":"m 100 486 q 125 549 100 523 q 188 574 151 574 q 250 549 224 574 q 276 486 276 523 q 250 424 276 450 q 188 398 224 398 q 125 424 151 398 q 100 486 100 450 z "},"∙":{"ha":375,"x_min":100,"x_max":276,"o":"m 100 486 q 125 549 100 523 q 188 574 151 574 q 250 549 224 574 q 276 486 276 523 q 250 424 276 450 q 188 398 224 398 q 125 424 151 398 q 100 486 100 450 z "},"¸":{"ha":724,"x_min":241,"x_max":547,"o":"m 241 -174 q 359 -222 319 -222 q 412 -211 396 -222 q 427 -170 427 -199 q 399 -131 427 -142 q 336 -123 379 -123 q 300 -125 320 -123 l 336 0 l 409 0 l 385 -59 q 408 -58 387 -58 q 511 -88 475 -58 q 547 -169 547 -119 q 504 -255 547 -222 q 384 -288 460 -288 q 241 -262 306 -288 l 241 -174 z "},"»":{"ha":698,"x_min":68,"x_max":580,"o":"m 101 113 l 68 113 l 68 144 l 208 325 l 68 505 l 68 537 l 101 537 l 340 325 l 101 113 m 340 113 l 308 113 l 308 144 l 447 325 l 308 505 l 308 537 l 340 537 l 580 325 l 340 113 z "},"×":{"ha":751,"x_min":116,"x_max":635,"o":"m 376 410 l 193 227 l 116 303 l 299 486 l 116 669 l 193 746 l 376 563 l 559 746 l 635 669 l 452 486 l 635 303 l 559 227 l 376 410 z "},"÷":{"ha":751,"x_min":54,"x_max":697,"o":"m 54 432 l 54 541 l 697 541 l 697 432 l 54 432 m 188 547 l 464 547 q 470 541 470 545 l 470 338 q 464 332 470 332 l 188 332 q 182 338 182 332 l 182 541 q 188 547 182 547 m 188 943 l 464 943 q 470 937 470 942 l 470 735 q 464 729 470 729 l 188 729 q 182 735 182 729 l 182 937 q 188 943 182 943 z "},"ı":{"ha":414,"x_min":20,"x_max":393,"o":"m 294 153 q 330 41 294 41 l 393 41 l 393 0 l 28 0 l 28 41 l 92 41 q 127 153 127 41 l 127 443 q 85 490 127 490 l 20 490 l 20 520 q 213 650 171 568 l 294 650 l 294 153 z "},"̀":{"ha":0,"x_min":-452,"x_max":-121,"o":"m -121 732 l -187 732 l -399 853 q -452 924 -452 882 q -438 958 -452 942 q -393 975 -425 975 q -295 924 -338 975 l -121 732 z "},"́":{"ha":0,"x_min":-450,"x_max":-119,"o":"m -450 732 l -276 924 q -178 975 -233 975 q -133 958 -146 975 q -119 924 -119 942 q -172 853 -119 882 l -384 732 l -450 732 z "},"̂":{"ha":0,"x_min":-499,"x_max":-66,"o":"m -499 732 l -333 975 l -232 975 l -66 732 l -133 732 l -282 865 l -432 732 l -499 732 z "},"̃":{"ha":0,"x_min":-497,"x_max":-75,"o":"m -75 930 q -224 777 -121 777 q -318 800 -271 777 q -401 823 -366 823 q -452 777 -439 823 l -497 777 q -347 930 -458 930 q -258 908 -305 930 q -175 886 -210 886 q -121 930 -134 886 l -75 930 z "},"̄":{"ha":0,"x_min":-475,"x_max":-95,"o":"m -475 804 l -475 902 l -95 902 l -95 804 l -475 804 z "},"̇":{"ha":0,"x_min":-374,"x_max":-199,"o":"m -363 876 l -317 925 q -302 934 -311 930 q -285 938 -294 938 q -268 934 -276 938 q -254 924 -260 930 l -207 873 q -200 865 -202 870 q -199 855 -199 861 q -201 845 -199 849 q -208 835 -202 840 l -256 783 q -271 771 -265 774 q -285 768 -277 768 q -304 771 -296 768 q -317 781 -313 774 l -368 839 q -373 847 -372 843 q -374 857 -374 851 q -372 866 -374 861 q -363 876 -370 871 z "},"̈":{"ha":0,"x_min":-496,"x_max":-73,"o":"m -486 878 l -427 932 q -406 941 -417 941 q -385 930 -397 941 l -328 875 q -320 856 -320 865 q -330 836 -320 846 l -386 778 q -406 765 -401 765 q -427 774 -418 765 l -490 840 q -496 857 -496 848 q -486 878 -496 867 m -239 878 l -180 932 q -159 941 -170 941 q -138 930 -151 941 l -81 875 q -73 856 -73 865 q -83 836 -73 846 l -139 778 q -159 765 -154 765 q -180 774 -172 765 l -243 840 q -250 857 -250 848 q -239 878 -250 867 z "},"̊":{"ha":0,"x_min":-420,"x_max":-150,"o":"m -353 864 q -332 815 -353 833 q -286 797 -311 797 q -240 815 -261 797 q -220 864 -220 833 q -241 911 -220 893 q -286 930 -262 930 q -332 911 -311 930 q -353 864 -353 893 m -420 864 q -383 956 -420 917 q -286 996 -345 996 q -188 956 -226 996 q -150 864 -150 916 q -188 771 -150 810 q -286 732 -226 732 q -383 771 -345 732 q -420 864 -420 810 z "},"̌":{"ha":0,"x_min":-501,"x_max":-68,"o":"m -501 975 l -434 975 l -284 844 l -135 975 l -68 975 l -234 732 l -335 732 l -501 975 z "},"̧":{"ha":0,"x_min":-475,"x_max":-195,"o":"m -257 0 q -339 -77 -315 -44 q -363 -148 -363 -111 q -348 -195 -363 -180 q -310 -211 -332 -211 q -216 -168 -260 -211 l -195 -184 q -262 -256 -221 -231 q -353 -281 -302 -281 q -441 -254 -408 -281 q -475 -189 -475 -227 q -435 -86 -475 -137 q -319 0 -395 -35 l -257 0 z "},"–":{"ha":751,"x_min":38,"x_max":713,"o":"m 38 271 l 38 379 l 713 379 l 713 271 l 38 271 z "},"—":{"ha":1389,"x_min":0,"x_max":1389,"o":"m 0 271 l 0 379 l 1389 379 l 1389 271 l 0 271 z "},"‘":{"ha":356,"x_min":0,"x_max":288,"o":"m 282 648 l 6 648 q 0 654 0 649 l 0 963 q 6 969 0 969 l 107 969 q 113 963 113 969 l 113 862 l 282 862 q 288 856 288 862 l 288 654 q 282 648 288 648 z "},"’":{"ha":356,"x_min":0,"x_max":288,"o":"m 6 969 l 282 969 q 288 963 288 968 l 288 654 q 282 648 288 648 l 181 648 q 175 654 175 648 l 175 755 l 6 755 q 0 761 0 755 l 0 963 q 6 969 1 969 z "},"‚":{"ha":356,"x_min":0,"x_max":288,"o":"m 6 210 l 282 210 q 288 204 288 209 l 288 -105 q 282 -111 288 -111 l 181 -111 q 175 -105 175 -111 l 175 -4 l 6 -4 q 0 2 0 -4 l 0 204 q 6 210 1 210 z "},"“":{"ha":702,"x_min":0,"x_max":634,"o":"m 628 648 l 352 648 q 346 654 346 649 l 346 963 q 352 969 346 969 l 453 969 q 458 963 458 969 l 458 862 l 628 862 q 634 856 634 862 l 634 654 q 628 648 633 648 m 282 648 l 6 648 q 0 654 0 649 l 0 963 q 6 969 0 969 l 107 969 q 113 963 113 969 l 113 862 l 282 862 q 288 856 288 862 l 288 654 q 282 648 288 648 z "},"”":{"ha":702,"x_min":0,"x_max":634,"o":"m 6 969 l 282 969 q 288 963 288 968 l 288 654 q 282 648 288 648 l 181 648 q 175 654 175 648 l 175 755 l 6 755 q 0 761 0 755 l 0 963 q 6 969 1 969 m 352 969 l 628 969 q 634 963 634 968 l 634 654 q 628 648 634 648 l 527 648 q 521 654 521 648 l 521 755 l 352 755 q 346 761 346 755 l 346 963 q 352 969 347 969 z "},"„":{"ha":702,"x_min":0,"x_max":634,"o":"m 6 213 l 282 213 q 288 207 288 212 l 288 -102 q 282 -109 288 -109 l 181 -109 q 175 -102 175 -109 l 175 -1 l 6 -1 q 0 5 0 -1 l 0 207 q 6 213 1 213 m 352 213 l 628 213 q 634 207 634 212 l 634 -102 q 628 -109 634 -109 l 527 -109 q 521 -102 521 -109 l 521 -1 l 352 -1 q 346 5 346 -1 l 346 207 q 352 213 347 213 z "},"†":{"ha":751,"x_min":49,"x_max":699,"o":"m 353 -182 q 322 199 346 68 q 273 435 299 329 q 353 633 320 480 q 216 597 264 633 q 138 561 168 561 q 75 585 100 561 q 49 654 49 609 q 74 725 49 701 q 136 749 99 749 q 219 712 171 749 q 353 676 267 676 q 308 814 334 765 q 281 893 281 863 q 305 956 281 930 q 374 982 329 982 q 443 956 418 982 q 467 893 467 930 q 440 814 467 863 q 394 676 413 765 q 528 712 480 676 q 611 749 576 749 q 673 725 648 749 q 699 654 699 701 q 673 585 699 609 q 610 561 647 561 q 532 597 580 561 q 394 633 484 633 q 474 435 427 480 q 425 199 448 329 q 395 -181 401 68 l 353 -182 z "},"‡":{"ha":751,"x_min":49,"x_max":699,"o":"m 394 167 q 532 203 484 167 q 610 239 580 239 q 673 215 647 239 q 699 146 699 191 q 673 75 699 99 q 611 52 648 52 q 528 88 576 52 q 394 124 480 124 q 440 -14 413 35 q 467 -93 467 -63 q 443 -156 467 -130 q 374 -182 418 -182 q 305 -156 329 -182 q 281 -93 281 -130 q 308 -14 281 -63 q 353 124 334 35 q 219 88 267 124 q 136 52 171 52 q 74 75 99 52 q 49 146 49 99 q 75 215 49 191 q 138 239 100 239 q 216 203 168 239 q 353 167 264 167 q 273 400 320 320 q 353 633 320 480 q 216 597 264 633 q 138 561 168 561 q 75 585 100 561 q 49 654 49 609 q 74 725 49 701 q 136 749 99 749 q 219 712 171 749 q 353 676 267 676 q 308 814 334 765 q 281 893 281 863 q 305 956 281 930 q 374 982 329 982 q 443 956 418 982 q 467 893 467 930 q 440 814 467 863 q 394 676 413 765 q 528 712 480 676 q 611 749 576 749 q 673 725 648 749 q 699 654 699 701 q 673 585 699 609 q 610 561 647 561 q 532 597 580 561 q 394 633 484 633 q 474 400 427 480 q 394 167 427 320 z "},"•":{"ha":751,"x_min":149,"x_max":602,"o":"m 149 487 q 213 644 149 574 q 376 713 276 713 q 539 643 476 713 q 602 487 602 573 q 538 330 602 401 q 375 260 475 260 q 212 330 275 260 q 149 487 149 400 z "},"…":{"ha":1389,"x_min":0,"x_max":1215,"o":"m 6 210 l 282 210 q 288 204 288 209 l 288 2 q 282 -4 288 -4 l 6 -4 q 0 2 0 -4 l 0 204 q 6 210 1 210 m 469 210 l 745 210 q 751 204 751 209 l 751 2 q 745 -4 751 -4 l 469 -4 q 463 2 463 -4 l 463 204 q 469 210 464 210 m 932 210 l 1208 210 q 1215 204 1215 209 l 1215 2 q 1208 -4 1215 -4 l 932 -4 q 926 2 926 -4 l 926 204 q 932 210 927 210 z "},"‹":{"ha":458,"x_min":118,"x_max":390,"o":"m 118 325 l 357 537 l 390 537 l 390 505 l 251 325 l 390 144 l 390 113 l 357 113 l 118 325 z "},"›":{"ha":458,"x_min":68,"x_max":340,"o":"m 101 113 l 68 113 l 68 144 l 208 325 l 68 505 l 68 537 l 101 537 l 340 325 l 101 113 z "},"⁄":{"ha":232,"x_min":-130,"x_max":361,"o":"m -130 -14 l 304 986 l 361 986 l -72 -14 l -130 -14 z "},"∕":{"ha":232,"x_min":-130,"x_max":361,"o":"m -130 -14 l 304 986 l 361 986 l -72 -14 l -130 -14 z "},"₣":{"ha":751,"x_min":20,"x_max":735,"o":"m 127 308 l 127 775 q 53 926 127 926 l 20 926 l 20 972 l 660 972 l 735 804 l 659 804 q 569 926 619 926 l 397 926 q 323 775 323 926 l 323 526 l 566 526 q 604 562 604 526 l 604 608 l 670 608 l 670 365 l 604 365 l 604 413 q 566 447 604 447 l 323 447 l 323 308 l 450 308 l 450 227 l 323 227 l 323 197 q 397 47 323 47 l 458 47 l 458 0 l 20 0 l 20 47 l 53 47 q 127 197 127 47 l 127 227 l 20 227 l 20 308 l 127 308 z "},"₤":{"ha":751,"x_min":54,"x_max":698,"o":"m 129 558 q 106 675 106 625 q 194 912 106 825 q 433 1000 282 1000 q 576 988 492 1000 q 661 961 661 977 l 661 830 l 614 830 q 559 900 612 865 q 433 935 506 935 q 314 875 355 935 q 273 717 273 815 q 295 558 273 632 l 554 558 l 554 504 l 314 504 q 319 494 316 499 q 332 463 326 478 l 554 463 l 554 409 l 351 409 q 363 327 363 363 q 264 81 363 212 l 531 81 q 635 172 595 81 l 698 172 l 623 0 l 79 0 l 80 37 q 200 323 200 190 q 186 409 200 361 l 54 409 l 54 463 l 168 463 q 153 498 161 480 l 151 504 l 54 504 l 54 558 l 129 558 z "},"₧":{"ha":1503,"x_min":60,"x_max":1461,"o":"m 346 926 l 346 487 q 388 382 346 416 q 449 353 422 353 l 452 353 q 502 394 471 356 q 551 509 533 433 q 565 636 565 571 q 564 668 565 652 q 533 820 559 751 q 477 907 507 888 q 425 926 448 926 l 346 926 m 1056 -3 q 989 -9 1026 -9 q 841 34 883 -9 q 800 151 800 77 l 800 610 l 730 610 q 702 492 725 550 q 606 367 671 417 q 460 317 541 317 q 346 363 376 317 l 346 197 q 406 47 346 47 l 479 47 l 479 0 l 60 0 l 60 47 l 121 47 q 169 197 169 47 l 169 775 q 121 926 169 926 l 60 926 l 60 972 l 465 972 q 605 924 541 972 q 701 800 669 875 q 732 650 730 726 l 753 650 q 921 887 894 650 l 966 887 l 966 650 l 1154 650 q 1238 663 1191 662 l 1240 663 q 1356 651 1295 663 q 1417 627 1417 640 l 1417 517 l 1385 517 q 1330 594 1368 572 q 1234 617 1293 617 q 1182 598 1206 617 q 1158 532 1158 579 q 1308 385 1158 455 q 1430 302 1398 345 q 1461 205 1461 260 q 1393 55 1461 118 q 1219 -8 1324 -8 q 1124 2 1183 -8 q 1089 -35 1099 0 l 1067 -34 l 1056 -3 m 966 609 l 966 151 q 988 69 966 90 q 1036 50 1004 54 l 986 184 l 1033 184 q 1215 38 1088 38 q 1295 68 1261 38 q 1329 159 1329 98 q 1162 312 1329 233 q 1057 391 1086 351 q 1027 481 1027 431 q 1081 609 1027 556 l 966 609 z "},"€":{"ha":751,"x_min":-30,"x_max":774,"o":"m 61 578 q 107 726 74 652 q 269 916 161 845 q 494 986 376 986 q 591 972 558 986 q 630 958 624 958 q 644 987 644 958 l 701 987 l 762 785 l 701 785 q 598 906 663 876 q 465 937 533 937 q 290 800 363 931 q 222 578 237 704 l 610 578 l 598 524 l 218 524 q 217 484 217 504 l 587 484 l 576 429 l 219 429 q 308 170 231 288 q 505 28 398 28 l 506 28 q 656 77 594 29 q 720 202 718 124 l 774 202 l 774 103 q 710 24 774 65 q 506 -20 646 -18 q 266 52 373 -20 q 106 241 159 123 q 56 429 64 334 l -30 429 l -18 484 l 53 484 q 54 524 53 504 l -7 524 l 5 578 l 61 578 z "},"∂":{"ha":751,"x_min":49,"x_max":703,"o":"m 228 311 q 270 154 237 227 q 343 49 303 81 q 401 21 378 21 l 406 21 q 466 61 432 23 q 516 177 500 99 q 527 281 527 228 q 524 340 527 311 q 481 498 514 424 q 408 603 448 572 q 347 630 372 630 l 344 630 q 287 591 321 629 q 235 475 253 553 q 224 366 224 416 q 228 311 224 336 m 703 326 q 665 162 703 241 q 548 33 627 83 q 376 -16 469 -16 q 204 33 283 -16 q 87 162 125 83 q 49 326 49 241 q 88 489 49 410 q 206 618 127 569 q 376 667 286 667 q 511 628 482 667 q 368 843 463 753 q 141 942 273 932 l 141 989 q 556 793 410 989 q 703 326 703 596 z "},"∆":{"ha":838,"x_min":4,"x_max":798,"o":"m 406 997 l 798 0 l 4 0 l 406 997 m 104 69 l 597 69 l 354 690 l 104 69 z "},"∏":{"ha":1135,"x_min":66,"x_max":1088,"o":"m 437 926 q 370 774 370 926 l 370 -85 q 437 -237 370 -237 l 505 -237 l 505 -285 l 66 -285 l 66 -237 l 134 -237 q 201 -85 201 -237 l 201 774 q 134 926 201 926 l 66 926 l 66 972 l 1088 972 l 1088 926 l 1019 926 q 953 774 953 926 l 953 -85 q 1020 -237 953 -237 l 1088 -237 l 1088 -284 l 648 -284 l 648 -237 l 716 -237 q 783 -85 783 -237 l 783 774 q 716 926 783 926 l 437 926 z "},"∑":{"ha":871,"x_min":76,"x_max":831,"o":"m 720 433 l 199 -238 l 665 -238 q 768 -149 728 -238 l 831 -149 l 756 -285 l 76 -285 l 76 -238 q 155 -202 127 -238 l 570 334 l 155 888 q 76 925 127 925 l 76 972 l 756 972 l 831 836 l 768 836 q 665 925 728 925 l 349 925 l 720 433 z "},"−":{"ha":751,"x_min":54,"x_max":697,"o":"m 54 432 l 54 541 l 697 541 l 697 432 l 54 432 z "},"√":{"ha":751,"x_min":110,"x_max":810,"o":"m 235 -18 l 110 275 l 206 307 l 258 191 l 698 1125 l 810 1125 l 810 1071 l 747 1071 l 235 -18 z "},"∞":{"ha":751,"x_min":39,"x_max":712,"o":"m 318 514 q 267 578 311 559 q 204 593 234 593 q 186 592 195 593 q 116 562 149 585 q 71 511 84 538 q 59 469 59 487 l 59 465 q 76 421 60 444 q 127 387 92 398 q 174 378 150 378 q 200 380 187 378 q 268 410 237 389 q 318 514 298 431 m 349 463 q 414 385 355 422 q 506 353 463 353 q 524 355 515 353 q 613 391 572 363 q 672 452 654 418 q 689 509 689 484 l 689 513 q 666 569 688 540 q 600 612 644 597 q 540 621 570 621 q 507 618 524 621 q 412 576 455 611 q 349 463 368 542 m 332 585 q 347 627 336 600 q 420 725 374 691 q 515 758 467 758 q 609 725 563 758 q 684 627 655 692 q 712 486 712 562 q 684 346 712 412 q 609 247 655 280 q 515 214 563 214 q 420 248 467 214 q 347 346 374 281 q 332 389 336 372 q 323 366 330 381 q 266 283 302 311 q 193 256 230 256 q 120 284 157 256 q 61 368 83 312 q 39 486 39 424 q 61 604 39 548 q 120 689 83 661 q 193 717 157 717 q 266 689 230 717 q 323 608 302 661 q 332 585 331 591 z "},"∫":{"ha":460,"x_min":-35,"x_max":556,"o":"m 31 -194 q -35 -170 -35 -194 l -35 -58 l 13 -58 q 30 -106 14 -96 q 81 -117 46 -117 q 141 -10 126 -117 q 161 201 155 96 l 208 699 l 214 741 q 307 1034 231 899 q 490 1168 383 1168 q 556 1144 556 1168 l 556 1032 l 507 1032 q 490 1080 507 1069 q 439 1090 473 1090 q 379 988 401 1090 q 353 743 356 886 l 304 224 q 213 -62 290 71 q 31 -194 136 -194 z "},"≈":{"ha":751,"x_min":75,"x_max":677,"o":"m 677 748 l 677 590 q 592 523 634 541 q 509 505 550 505 q 373 537 466 505 q 242 570 280 570 q 174 552 210 570 q 75 462 138 534 l 75 620 q 160 688 118 669 q 242 707 202 707 q 380 673 288 707 q 509 640 473 640 q 577 657 541 640 q 677 748 614 675 m 677 512 l 677 354 q 592 287 634 304 q 509 269 550 269 q 373 301 466 269 q 242 334 280 334 q 174 316 210 334 q 75 226 138 298 l 75 384 q 160 452 118 433 q 242 471 202 471 q 380 437 288 471 q 509 404 473 404 q 577 421 541 404 q 677 512 614 439 z "},"≤":{"ha":589,"x_min":0,"x_max":697,"o":"m 382 922 l 385 922 q 521 786 389 922 l 521 783 l 277 536 q 521 292 418 398 l 521 290 q 385 154 521 286 l 382 154 q 0 536 216 317 l 0 539 q 382 922 163 706 m 54 0 l 54 109 l 697 109 l 697 0 l 54 0 z "},"≥":{"ha":589,"x_min":0,"x_max":697,"o":"m 136 922 l 138 922 q 521 539 305 758 l 521 536 q 138 154 357 370 l 136 154 q 0 290 132 154 l 0 292 l 244 539 q 0 783 102 677 l 0 786 q 136 922 0 790 m 54 0 l 54 109 l 697 109 l 697 0 l 54 0 z "}}}
